<svg xmlns="http://www.w3.org/2000/svg" xmlns:xlink="http://www.w3.org/1999/xlink" width="200px" height="46px" viewBox="0 0 200 46" version="1.1">
    <!-- Generator: Sketch 46 (44423) - http://www.bohemiancoding.com/sketch -->
    <title>Logo black</title>
    <desc>Created with Sketch.</desc>
    <defs>
        <polygon id="path-1" points="0 33.121097 0 0.682278481 25.5178059 0.682278481 25.5178059 33.121097"/>
        <polygon id="path-3" points="0 46.0014346 199.868354 46.0014346 199.868354 -0.000253164557 0 -0.000253164557"/>
    </defs>
    <g id="Desktop" stroke="none" stroke-width="1" fill="none" fill-rule="evenodd">
        <g id="Pocetna-r2" transform="translate(-306.000000, -145.000000)">
            <g id="Header" transform="translate(260.000000, 140.000000)">
                <g id="Logo-black" transform="translate(46.000000, 5.000000)">
                    <g id="Group-3" transform="translate(0.000000, 2.963460)">
                        <mask id="mask-2" fill="white">
                            <use xlink:href="#path-1"/>
                        </mask>
                        <g id="Clip-2"/>
                        <path d="M17.2055696,21.078903 C17.2055696,17.5303797 15.3642194,14.0265823 11.545654,14.0265823 C8.40050633,14.0265823 5.79544304,16.5860759 5.79544304,21.1253165 C5.79544304,25.4814346 8.0857384,28.3126582 11.4553586,28.3126582 C14.4216034,28.3126582 17.2055696,26.157384 17.2055696,21.078903 M10.4216034,9.12953586 C15.4089451,9.12953586 17.0275105,11.9151899 17.0275105,11.9151899 L17.116962,11.9151899 C17.116962,11.9151899 17.0722363,11.3312236 17.0722363,10.5666667 L17.0722363,6.52362869 C17.0722363,5.84936709 16.7127426,5.53459916 16.0832068,5.53459916 L14.2865823,5.53459916 L14.2865823,0.682278481 L19.7220253,0.682278481 C21.8334177,0.682278481 22.7785654,1.62658228 22.7785654,3.73797468 L22.7785654,26.7852321 C22.7785654,27.4147679 23.1372152,27.7742616 23.7650633,27.7742616 L25.5178059,27.7742616 L25.5178059,32.5801688 L20.2612658,32.5801688 C18.1945992,32.5801688 17.43173,31.592827 17.43173,30.2443038 L17.43173,29.3911392 L17.3405907,29.3911392 C17.3405907,29.3911392 15.4553586,33.121097 10.1971308,33.121097 C3.99881857,33.121097 -0.000337552743,28.2223629 -0.000337552743,21.1253165 C-0.000337552743,13.8468354 4.35746835,9.12953586 10.4216034,9.12953586" id="Fill-1" fill="#231F20" mask="url(#mask-2)"/>
                    </g>
                    <mask id="mask-4" fill="white">
                        <use xlink:href="#path-3"/>
                    </mask>
                    <g id="Clip-5"/>
                    <path d="M30.6843882,8.90270042 L35.6253165,8.90270042 L35.6253165,3.64616034 L30.6843882,3.64616034 L30.6843882,8.90270042 Z M30.414346,18.4714768 C30.414346,17.7972152 30.0548523,17.484135 29.4270042,17.484135 L27.628692,17.484135 L27.628692,12.6318143 L33.0649789,12.6318143 C35.1780591,12.6318143 36.0759494,13.5744304 36.0759494,15.6858228 L36.0759494,29.74827 C36.0759494,30.3778059 36.435443,30.7372996 37.0632911,30.7372996 L38.8616034,30.7372996 L38.8616034,35.5432068 L33.4236287,35.5432068 C31.3122363,35.5432068 30.414346,34.6453165 30.414346,32.4891983 L30.414346,18.4714768 Z" id="Fill-4" fill="#231F20" mask="url(#mask-4)"/>
                    <path d="M43.6675949,18.4714768 C43.6675949,17.7972152 43.3081013,17.484135 42.6802532,17.484135 L40.8819409,17.484135 L40.8819409,12.6318143 L46.0937553,12.6318143 C48.1156962,12.6318143 49.1494515,13.4858228 49.1494515,15.4174684 L49.1494515,16.7659916 C49.1494515,17.6191561 49.0591561,18.2031224 49.0591561,18.2031224 L49.1494515,18.2031224 C50.1832068,14.9229536 52.9224473,12.3170464 56.4262447,12.3170464 C56.9224473,12.3170464 57.4616878,12.4073418 57.4616878,12.4073418 L57.4616878,18.0233755 C57.4616878,18.0233755 56.8760338,17.9322363 56.0667511,17.9322363 C53.6422785,17.9322363 50.8557806,19.3254852 49.8220253,22.7406751 C49.5089451,23.8647257 49.3275105,25.1221097 49.3275105,26.4706329 L49.3275105,35.5432068 L43.6675949,35.5432068 L43.6675949,18.4714768 Z" id="Fill-6" fill="#231F20" mask="url(#mask-4)"/>
                    <path d="M74.9818565,21.1234599 C74.8915612,18.3825316 73.0037975,16.4956118 70.6687764,16.4956118 C67.7481013,16.4956118 65.6814346,18.2475105 65.0527426,21.1234599 L74.9818565,21.1234599 Z M70.6687764,12.0930802 C77.2265823,12.0930802 80.821519,16.9006751 80.821519,22.9648101 C80.821519,23.6382278 80.6881857,25.0762025 80.6881857,25.0762025 L64.8721519,25.0762025 C65.3219409,29.1209283 68.2864979,31.2323207 71.7464135,31.2323207 C75.4299578,31.2323207 78.1708861,28.6702954 78.1708861,28.6702954 L80.5531646,32.6247257 C80.5531646,32.6247257 77.0485232,36.0846414 71.343038,36.0846414 C63.7489451,36.0846414 59.0324895,30.6019409 59.0324895,24.0888608 C59.0324895,17.0356962 63.7936709,12.0930802 70.6687764,12.0930802 L70.6687764,12.0930802 Z" id="Fill-7" fill="#231F20" mask="url(#mask-4)"/>
                    <path d="M86.16827,9.48708861 C86.16827,8.812827 85.8070886,8.49805907 85.1792405,8.49805907 L83.382616,8.49805907 L83.382616,3.6457384 L88.818903,3.6457384 C90.9302954,3.6457384 91.8745992,4.14025316 91.8745992,6.25164557 L91.8745992,20.72 L93.5800844,20.72 C94.2990717,20.72 95.2433755,20.584135 95.7378903,19.8643038 L100.408776,12.6322363 L106.744641,12.6322363 L100.948017,21.2583966 C99.9606751,22.6938397 99.2416878,23.0550211 99.2416878,23.0550211 L99.2416878,23.1444726 C99.2416878,23.1444726 100.049283,23.4592405 100.858565,24.9419409 L103.464473,29.8837131 C103.823966,30.5579747 104.272068,30.7377215 105.351392,30.7377215 L106.877975,30.7377215 L106.877975,35.5436287 L102.65519,35.5436287 C100.723544,35.5436287 99.9606751,35.2305485 99.0619409,33.5672574 L95.2433755,26.3799156 C94.7935865,25.5706329 93.8509705,25.5259072 93.1319831,25.5259072 L91.8745992,25.5259072 L91.8745992,35.5436287 L86.16827,35.5436287 L86.16827,9.48708861 Z" id="Fill-8" fill="#231F20" mask="url(#mask-4)"/>
                    <path d="M111.281941,17.1693671 L108.31654,17.1693671 L108.31654,12.6318143 L111.415274,12.6318143 L111.415274,6.38708861 L116.98827,6.38708861 L116.98827,12.6318143 L122.200084,12.6318143 L122.200084,17.1693671 L116.98827,17.1693671 L116.98827,26.4242194 C116.98827,30.1980591 119.952827,30.7372996 121.525823,30.7372996 C122.155359,30.7372996 122.558734,30.6470042 122.558734,30.6470042 L122.558734,35.634346 C122.558734,35.634346 121.840591,35.7693671 120.806835,35.7693671 C117.616118,35.7693671 111.281941,34.8267511 111.281941,27.1423629 L111.281941,17.1693671 Z" id="Fill-9" fill="#231F20" mask="url(#mask-4)"/>
                    <path d="M127.815105,18.4714768 C127.815105,17.7972152 127.455612,17.484135 126.826076,17.484135 L125.029451,17.484135 L125.029451,12.6318143 L130.285992,12.6318143 C132.307932,12.6318143 133.295274,13.5744304 133.295274,15.1929958 L133.295274,15.8655696 C133.295274,16.3600844 133.206667,16.8545992 133.206667,16.8545992 L133.295274,16.8545992 C134.284304,14.9229536 136.75519,12.0925738 141.383038,12.0925738 C146.459831,12.0925738 149.380506,14.7432068 149.380506,20.8090295 L149.380506,29.74827 C149.380506,30.3778059 149.739156,30.7372996 150.367848,30.7372996 L152.165316,30.7372996 L152.165316,35.5432068 L146.728186,35.5432068 C144.572068,35.5432068 143.674177,34.6453165 143.674177,32.4891983 L143.674177,21.976962 C143.674177,19.1921519 142.95519,17.3043882 140.080928,17.3043882 C137.025232,17.3043882 134.734093,19.2360338 133.92481,21.976962 C133.610042,22.9195781 133.475021,23.9533333 133.475021,25.0309705 L133.475021,35.5432068 L127.815105,35.5432068 L127.815105,18.4714768 Z" id="Fill-10" fill="#231F20" mask="url(#mask-4)"/>
                    <g id="Group" mask="url(#mask-4)">
                        <g transform="translate(152.500000, 0.000000)">
                            <path d="M43.8574684,3.50075949 C44.1857384,3.50075949 44.3832068,3.29316456 44.3832068,2.95561181 C44.3832068,2.60540084 44.1857384,2.41637131 43.8675949,2.41637131 L43.3891139,2.41637131 L43.3891139,3.50075949 L43.8574684,3.50075949 Z M42.5435443,2.41637131 L42.2254008,2.41637131 L42.2254008,1.80118143 L44.0566245,1.80118143 C44.7722363,1.80118143 45.2498734,2.25772152 45.2498734,2.95561181 C45.2498734,3.52185654 44.8608439,3.8307173 44.602616,3.89991561 L44.602616,3.91932489 C44.602616,3.91932489 44.7325738,3.94886076 44.831308,4.11848101 L45.1494515,4.71510549 C45.2203376,4.83409283 45.2996624,4.83409283 45.3688608,4.83409283 L45.4777215,4.83409283 L45.4777215,5.44084388 L45.0009283,5.44084388 C44.7325738,5.44084388 44.602616,5.39274262 44.4836287,5.17333333 L43.995865,4.2585654 C43.9165401,4.10919831 43.8059916,4.09907173 43.6675949,4.09907173 L43.3891139,4.09907173 L43.3891139,5.44084388 L42.5435443,5.44084388 L42.5435443,2.41637131 Z M43.7865823,6.48556962 C45.3190717,6.48556962 46.4929114,5.23324895 46.4929114,3.64084388 C46.4929114,2.06025316 45.3190717,0.806244726 43.7865823,0.806244726 C42.2853165,0.806244726 41.1216034,2.06025316 41.1216034,3.64084388 C41.1216034,5.23324895 42.2853165,6.48556962 43.7865823,6.48556962 L43.7865823,6.48556962 Z M43.7865823,0.000337552743 C45.7756118,0.000337552743 47.3680169,1.6214346 47.3680169,3.64084388 C47.3680169,5.66025316 45.7756118,7.29147679 43.7865823,7.29147679 C41.8270886,7.29147679 40.2363713,5.66025316 40.2363713,3.64084388 C40.2363713,1.6214346 41.8270886,0.000337552743 43.7865823,0.000337552743 L43.7865823,0.000337552743 Z" id="Fill-11" fill="#231F20"/>
                            <path d="M19.2827004,23.7061603 C19.2827004,25.3576371 20.621097,26.6960338 22.2742616,26.6960338 C23.9240506,26.6960338 25.264135,25.3576371 25.264135,23.7061603 C25.264135,22.0563713 23.9240506,20.7162869 22.2742616,20.7162869 C20.621097,20.7162869 19.2827004,22.0563713 19.2827004,23.7061603" id="Fill-12" fill="#EC1D24"/>
                            <polygon id="Fill-13" fill="#231F20" points="44.1788186 43.0066667 37.9729114 36.6910549 42.5391561 34.0252321 25.983038 27.5383122 32.1796624 44.2032911 34.925654 39.6834599 41.1315612 46.0016034"/>
                            <path d="M27.0325738,39.5734177 C25.4848945,40.050211 23.8435443,40.3151899 22.1372152,40.3151899 C12.8891139,40.3151899 5.39122363,32.8172996 5.39122363,23.5691983 C5.39122363,14.3227848 12.8891139,6.82320675 22.1372152,6.82320675 C31.3836287,6.82320675 38.881519,14.3227848 38.881519,23.5691983 C38.881519,25.4763713 38.5355274,27.2966245 37.945654,29.0037975 C39.8460759,29.6552743 41.510211,30.22827 42.6443882,30.6181435 C43.381097,28.4459916 43.8013502,26.1270042 43.8013502,23.7042194 C43.8013502,11.8139241 34.1625316,2.17594937 22.2739241,2.17594937 C10.3827848,2.17594937 0.743966245,11.8139241 0.743966245,23.7042194 C0.743966245,35.5962025 10.3827848,45.2350211 22.2739241,45.2350211 C24.4182278,45.2350211 26.48827,44.9185654 28.4435443,44.3337553 C28.0494515,42.9919831 27.5616878,41.3489451 27.0325738,39.5734177" id="Fill-14" fill="#231F20"/>
                            <path d="M24.3294515,30.5379747 C23.6703797,30.7405063 22.9733333,30.8544304 22.2459072,30.8544304 C18.2805063,30.8544304 15.0695359,27.6400844 15.0695359,23.6780591 C15.0695359,19.714346 18.2805063,16.5016878 22.2459072,16.5016878 C26.2087764,16.5016878 29.4222785,19.714346 29.4222785,23.6780591 C29.4222785,24.4797468 29.2838819,25.2468354 29.0416878,25.9658228 C30.4720675,26.450211 32.0163713,26.9751055 33.5581435,27.5016878 C33.9665823,26.2991561 34.2054008,25.0181435 34.2054008,23.6780591 C34.2054008,17.0721519 28.8501266,11.7185654 22.2459072,11.7185654 C15.64,11.7185654 10.2847257,17.0721519 10.2847257,23.6780591 C10.2847257,30.2839662 15.64,35.6392405 22.2459072,35.6392405 C23.4509705,35.6392405 24.6028692,35.4400844 25.6990717,35.1042194 C25.2273418,33.5312236 24.761519,31.9751055 24.3294515,30.5379747" id="Fill-15" fill="#231F20"/>
                        </g>
                    </g>
                </g>
            </g>
        </g>
    </g>
</svg>